#Comment line ignore any data following # character 
#Hierarchical Translation and Rotation (.htr) file 
[Header]	
#Header keywords are followed by a single value 
FileType HTR		#Single word string
DataType HTRS		#Translation followed by rotation and scale data
FileVersion 1		#integer
NumSegments 64		#integer
NumFrames 3		#integer
DataFrameRate 30		#integer, data frame rate in this file
EulerRotationOrder ZYX
CalibrationUnits mm
RotationUnits Degrees
GlobalAxisofGravity Y
BoneLengthAxis Y
ScaleFactor 1.00
[SegmentNames&Hierarchy]
#CHILD	PARENT
Pinger_Root GLOBAL
Pelvis Pinger_Root
L_Hip Pelvis
R_Hip Pelvis
Rear_Leg01 Pelvis
Spine1 Pelvis
L_Leg01 L_Hip
L_Leg02 L_Leg01
L_Leg03 L_Leg02
L_Foot L_Leg03
L_Toe1_01 L_Foot
L_Toe2_01 L_Foot
L_Toe3_01 L_Foot
planeAlignerLeft L_Foot
L_Toe1_02 L_Toe1_01
L_Toe1_03 L_Toe1_02
L_Toe2_02 L_Toe2_01
L_Toe2_03 L_Toe2_02
L_Toe3_02 L_Toe3_01
L_Toe3_03 L_Toe3_02
planeLockWeightLeft planeAlignerLeft
R_Leg01 R_Hip
R_Leg02 R_Leg01
R_Leg03 R_Leg02
R_Foot R_Leg03
planeAlignerRight R_Foot
R_Toe1_01 R_Foot
R_Toe2_01 R_Foot
R_Toe3_01 R_Foot
planeLockWeightRight planeAlignerRight
R_Toe1_02 R_Toe1_01
R_Toe1_03 R_Toe1_02
R_Toe2_02 R_Toe2_01
R_Toe2_03 R_Toe2_02
R_Toe3_02 R_Toe3_01
R_Toe3_03 R_Toe3_02
Rear_Leg02 Rear_Leg01
Rear_Leg03 Rear_Leg02
Rear_Leg04 Rear_Leg03
Rear_Foot Rear_Leg04
planeAlignerCenter Rear_Foot
Rear_Toe1_01 Rear_Foot
Rear_Toe2_01 Rear_Foot
Rear_Toe3_01 Rear_Foot
planeLockWeightCenter planeAlignerCenter
Rear_Toe1_02 Rear_Toe1_01
Rear_Toe1_03 Rear_Toe1_02
Rear_Toe2_02 Rear_Toe2_01
Rear_Toe2_03 Rear_Toe2_02
Rear_Toe3_02 Rear_Toe3_01
Rear_Toe3_03 Rear_Toe3_02
Back_Bone Spine1
Head Spine1
Motor_Bone Back_Bone
Ping_Mechanism Back_Bone
BN_LookIK Head
bottomMouth Head
L_Mouth01 Head
L_mouthFront Head
mouthGun Head
R_Mouth01 Head
R_mouthFront Head
TopMouth Head
weapon_bone Head
[BasePosition]
#SegmentName Tx, Ty, Tz, Rx, Ry, Rz, BoneLength
Pinger_Root 0.000000 0.000000 0.000000 -90.000000 0.000000 0.000000 10.000000 
Pelvis 0.000000 0.000000 0.000000 0.000000 0.000000 0.000000 10.000000 
L_Hip 0.000000 0.000000 0.000000 0.000000 0.000000 0.000000 10.000000 
R_Hip 0.000000 0.000000 0.000000 0.000000 0.000000 0.000000 10.000000 
Rear_Leg01 0.000000 0.000000 0.000000 0.000000 0.000000 0.000000 10.000000 
Spine1 0.000000 0.000000 0.000000 0.000000 0.000000 0.000000 10.000000 
L_Leg01 0.000000 0.000000 0.000000 0.000000 0.000000 0.000000 10.000000 
L_Leg02 0.000000 0.000000 0.000000 0.000000 0.000000 0.000000 10.000000 
L_Leg03 0.000000 0.000000 0.000000 0.000000 0.000000 0.000000 10.000000 
L_Foot 0.000000 0.000000 0.000000 0.000000 0.000000 0.000000 10.000000 
L_Toe1_01 0.000000 0.000000 0.000000 0.000000 0.000000 0.000000 10.000000 
L_Toe2_01 0.000000 0.000000 0.000000 0.000000 0.000000 0.000000 10.000000 
L_Toe3_01 0.000000 0.000000 0.000000 0.000000 0.000000 0.000000 10.000000 
planeAlignerLeft 0.000000 0.000000 0.000000 0.000000 0.000000 0.000000 10.000000 
L_Toe1_02 0.000000 0.000000 0.000000 0.000000 0.000000 0.000000 10.000000 
L_Toe1_03 0.000000 0.000000 0.000000 0.000000 0.000000 0.000000 10.000000 
L_Toe2_02 0.000000 0.000000 0.000000 0.000000 0.000000 0.000000 10.000000 
L_Toe2_03 0.000000 0.000000 0.000000 0.000000 0.000000 0.000000 10.000000 
L_Toe3_02 0.000000 0.000000 0.000000 0.000000 0.000000 0.000000 10.000000 
L_Toe3_03 0.000000 0.000000 0.000000 0.000000 0.000000 0.000000 10.000000 
planeLockWeightLeft 0.000000 0.000000 0.000000 0.000000 0.000000 0.000000 10.000000 
R_Leg01 0.000000 0.000000 0.000000 0.000000 0.000000 0.000000 10.000000 
R_Leg02 0.000000 0.000000 0.000000 0.000000 0.000000 0.000000 10.000000 
R_Leg03 0.000000 0.000000 0.000000 0.000000 0.000000 0.000000 10.000000 
R_Foot 0.000000 0.000000 0.000000 0.000000 0.000000 0.000000 10.000000 
planeAlignerRight 0.000000 0.000000 0.000000 0.000000 0.000000 0.000000 10.000000 
R_Toe1_01 0.000000 0.000000 0.000000 0.000000 0.000000 0.000000 10.000000 
R_Toe2_01 0.000000 0.000000 0.000000 0.000000 0.000000 0.000000 10.000000 
R_Toe3_01 0.000000 0.000000 0.000000 0.000000 0.000000 0.000000 10.000000 
planeLockWeightRight 0.000000 0.000000 0.000000 0.000000 0.000000 0.000000 10.000000 
R_Toe1_02 0.000000 0.000000 0.000000 0.000000 0.000000 0.000000 10.000000 
R_Toe1_03 0.000000 0.000000 0.000000 0.000000 0.000000 0.000000 10.000000 
R_Toe2_02 0.000000 0.000000 0.000000 0.000000 0.000000 0.000000 10.000000 
R_Toe2_03 0.000000 0.000000 0.000000 0.000000 0.000000 0.000000 10.000000 
R_Toe3_02 0.000000 0.000000 0.000000 0.000000 0.000000 0.000000 10.000000 
R_Toe3_03 0.000000 0.000000 0.000000 0.000000 0.000000 0.000000 10.000000 
Rear_Leg02 0.000000 0.000000 0.000000 0.000000 0.000000 0.000000 10.000000 
Rear_Leg03 0.000000 0.000000 0.000000 0.000000 0.000000 0.000000 10.000000 
Rear_Leg04 0.000000 0.000000 0.000000 0.000000 0.000000 0.000000 10.000000 
Rear_Foot 0.000000 0.000000 0.000000 0.000000 0.000000 0.000000 10.000000 
planeAlignerCenter 0.000000 0.000000 0.000000 0.000000 0.000000 0.000000 10.000000 
Rear_Toe1_01 0.000000 0.000000 0.000000 0.000000 0.000000 0.000000 10.000000 
Rear_Toe2_01 0.000000 0.000000 0.000000 0.000000 0.000000 0.000000 10.000000 
Rear_Toe3_01 0.000000 0.000000 0.000000 0.000000 0.000000 0.000000 10.000000 
planeLockWeightCenter 0.000000 0.000000 0.000000 0.000000 0.000000 0.000000 10.000000 
Rear_Toe1_02 0.000000 0.000000 0.000000 0.000000 0.000000 0.000000 10.000000 
Rear_Toe1_03 0.000000 0.000000 0.000000 0.000000 0.000000 0.000000 10.000000 
Rear_Toe2_02 0.000000 0.000000 0.000000 0.000000 0.000000 0.000000 10.000000 
Rear_Toe2_03 0.000000 0.000000 0.000000 0.000000 0.000000 0.000000 10.000000 
Rear_Toe3_02 0.000000 0.000000 0.000000 0.000000 0.000000 0.000000 10.000000 
Rear_Toe3_03 0.000000 0.000000 0.000000 0.000000 0.000000 0.000000 10.000000 
Back_Bone 0.000000 0.000000 0.000000 0.000000 0.000000 0.000000 10.000000 
Head 0.000000 0.000000 0.000000 0.000000 0.000000 0.000000 10.000000 
Motor_Bone 0.000000 0.000000 0.000000 0.000000 0.000000 0.000000 10.000000 
Ping_Mechanism 0.000000 0.000000 0.000000 0.000000 0.000000 0.000000 10.000000 
BN_LookIK 0.000000 0.000000 0.000000 0.000000 0.000000 0.000000 10.000000 
bottomMouth 0.000000 0.000000 0.000000 0.000000 0.000000 0.000000 10.000000 
L_Mouth01 0.000000 0.000000 0.000000 0.000000 0.000000 0.000000 10.000000 
L_mouthFront 0.000000 0.000000 0.000000 0.000000 0.000000 0.000000 10.000000 
mouthGun 0.000000 0.000000 0.000000 0.000000 0.000000 0.000000 10.000000 
R_Mouth01 0.000000 0.000000 0.000000 0.000000 0.000000 0.000000 10.000000 
R_mouthFront 0.000000 0.000000 0.000000 0.000000 0.000000 0.000000 10.000000 
TopMouth 0.000000 0.000000 0.000000 0.000000 0.000000 0.000000 10.000000 
weapon_bone 0.000000 0.000000 0.000000 0.000000 0.000000 0.000000 10.000000 
#Beginning of Data. Separated by tabs
#Fr	Tx	Ty	Tz	Rx	Ry	Rz	SF
[Pinger_Root]
284 0.000000 0.000000 0.000000 -0.000075 -0.000000 -0.000020 0.000000
285 0.000000 0.000000 0.000000 -0.000075 -0.000000 -0.000020 0.000000
286 0.000000 0.000000 0.000000 -0.000075 -0.000000 -0.000020 0.000000
[Pelvis]
284 73.007530 917.679260 4432.233398 -97.515465 -84.428802 89.888733 4526.826172
285 72.855171 917.429749 4432.233398 -97.515228 -84.428627 89.888496 4526.773438
286 72.702820 917.180298 4432.233398 -97.515060 -84.428520 89.888351 4526.720215
[L_Hip]
284 5.766392 125.831482 872.656799 160.158691 -45.484905 122.312202 881.701050
285 5.766392 125.831482 872.656799 160.158691 -45.484894 122.312202 881.701050
286 5.766392 125.831482 872.656799 160.158691 -45.484905 122.312202 881.701050
[R_Hip]
284 5.765438 125.836372 -872.654907 38.087841 49.812687 125.703735 881.699829
285 5.765438 125.836372 -872.654907 38.087841 49.812687 125.703735 881.699829
286 5.765438 125.836372 -872.654907 38.087841 49.812687 125.703735 881.699829
[Rear_Leg01]
284 -192.298416 -925.602966 -0.001907 169.671616 1.921071 -161.435226 945.367432
285 -192.298416 -925.602966 -0.001907 169.671768 1.921991 -161.436844 945.367432
286 -192.298416 -925.602966 -0.001907 169.671906 1.922910 -161.438446 945.367432
[Spine1]
284 290.604584 5.007505 0.000477 7.263161 -0.619482 17.705240 290.647736
285 290.604584 5.007505 0.000477 7.263157 -0.619482 17.705233 290.647736
286 290.604584 5.007505 0.000477 7.263160 -0.619482 17.705236 290.647736
[L_Leg01]
284 761.932007 -0.002384 -0.069261 21.589672 -16.364574 -7.092400 761.932068
285 761.932007 -0.002384 -0.069261 21.588139 -16.365854 -7.091752 761.932068
286 761.932007 -0.002384 -0.069261 21.586605 -16.367136 -7.091106 761.932068
[L_Leg02]
284 1441.140503 -0.000954 -0.000715 2.688501 -0.185735 -129.780212 1441.140503
285 1441.140503 -0.000954 -0.000715 2.688302 -0.185688 -129.778290 1441.140503
286 1441.140503 -0.000954 -0.000715 2.688104 -0.185641 -129.776398 1441.140503
[L_Leg03]
284 1686.963989 -0.000715 -0.000954 -0.029941 0.014726 118.166779 1686.963989
285 1686.963989 -0.000715 -0.000954 -0.029940 0.014727 118.170387 1686.963989
286 1686.963989 -0.000715 -0.000954 -0.029940 0.014728 118.173965 1686.963989
[L_Foot]
284 3041.570068 -30.715107 11.297464 1.931027 13.072225 55.472786 3041.746094
285 3041.570068 -30.715107 11.297464 1.933228 13.070716 55.473526 3041.746094
286 3041.570068 -30.715107 11.297464 1.935430 13.069206 55.474262 3041.746094
[L_Toe1_01]
284 -188.216690 -224.732346 -21.137953 94.358124 -6.916856 -176.610107 293.899567
285 -188.216690 -224.732346 -21.137953 94.358009 -6.915977 -176.609589 293.899567
286 -188.216690 -224.732346 -21.137953 94.357918 -6.915102 -176.609070 293.899567
[L_Toe2_01]
284 200.746536 -219.926590 148.838394 -89.930367 -26.356100 -52.769318 332.896027
285 200.746536 -219.926590 148.838394 -89.930550 -26.354925 -52.769993 332.896027
286 200.746536 -219.926590 148.838394 -89.930733 -26.353760 -52.770699 332.896027
[L_Toe3_01]
284 188.832520 -219.859131 -191.078659 -100.278442 13.839441 -68.146187 347.140900
285 188.832520 -219.859131 -191.078659 -100.278442 13.839441 -68.146187 347.140900
286 188.832520 -219.859131 -191.078659 -100.278442 13.839441 -68.146187 347.140900
[planeAlignerLeft]
284 0.812531 -811.448792 -0.314951 0.000000 -90.000000 -90.001900 811.449280
285 0.812531 -811.448792 -0.314951 0.000000 -90.000000 -90.001900 811.449280
286 0.812531 -811.448792 -0.314951 0.000000 -90.000000 -90.001900 811.449280
[L_Toe1_02]
284 413.761139 0.000477 0.000000 0.000203 -25.410625 -0.000182 413.761139
285 413.761139 0.000477 0.000000 0.000203 -25.410625 -0.000182 413.761139
286 413.761139 0.000477 0.000000 0.000203 -25.410625 -0.000182 413.761139
[L_Toe1_03]
284 464.317322 0.000358 -0.000089 0.006521 69.263161 0.006521 464.317322
285 464.317322 0.000358 -0.000089 0.006521 69.264450 0.006521 464.317322
286 464.317322 0.000358 -0.000089 0.006522 69.265739 0.006522 464.317322
[L_Toe2_02]
284 342.235809 -0.000477 0.000238 0.001199 -66.563332 0.001199 342.235809
285 342.235809 -0.000477 0.000238 0.001199 -66.563332 0.001199 342.235809
286 342.235809 -0.000477 0.000238 0.001199 -66.563332 0.001199 342.235809
[L_Toe2_03]
284 420.210846 -0.000715 0.000000 -0.001994 72.430641 -0.005532 420.210846
285 420.210846 -0.000715 0.000000 -0.001994 72.430641 -0.005532 420.210846
286 420.210846 -0.000715 0.000000 -0.001994 72.430641 -0.005532 420.210846
[L_Toe3_02]
284 329.270111 0.000954 0.000000 0.001181 -77.586250 0.001181 329.270111
285 329.270111 0.000954 0.000000 0.001181 -77.584641 0.001181 329.270111
286 329.270111 0.000954 0.000000 0.001181 -77.583046 0.001181 329.270111
[L_Toe3_03]
284 439.137451 -0.001907 0.000954 -179.957535 88.510101 -179.954041 439.137451
285 439.137451 -0.001907 0.000954 -179.957535 88.510101 -179.954041 439.137451
286 439.137451 -0.001907 0.000954 -179.957535 88.510101 -179.954041 439.137451
[planeLockWeightLeft]
284 -0.000954 0.000238 -0.000305 -0.011826 -0.004376 0.005620 0.001029
285 -0.000954 0.000238 -0.000305 -0.011826 -0.004376 0.005620 0.001029
286 -0.000954 0.000238 -0.000305 -0.011826 -0.004376 0.005620 0.001029
[R_Leg01]
284 761.455627 -0.001907 -0.000358 124.081398 -9.359697 33.766052 761.455688
285 761.455627 -0.001907 -0.000358 124.081520 -9.359836 33.765339 761.455688
286 761.455627 -0.001907 -0.000358 124.081642 -9.359974 33.764633 761.455688
[R_Leg02]
284 1441.140625 0.000000 -0.000238 -1.374816 -0.215745 -119.831612 1441.140625
285 1441.140625 0.000000 -0.000238 -1.374715 -0.215550 -119.830177 1441.140625
286 1441.140625 0.000000 -0.000238 -1.374615 -0.215355 -119.828758 1441.140625
[R_Leg03]
284 1686.963989 0.000954 0.001431 0.080176 -0.041728 131.660416 1686.963989
285 1686.963989 0.000954 0.001431 0.080176 -0.041727 131.659637 1686.963989
286 1686.963989 0.000954 0.001431 0.080176 -0.041727 131.658859 1686.963989
[R_Foot]
284 3041.560059 -30.531288 -11.204481 13.719300 -24.654255 55.276695 3041.734131
285 3041.560059 -30.531288 -11.204481 13.719690 -24.654047 55.274883 3041.734131
286 3041.560059 -30.531288 -11.204481 13.720081 -24.653843 55.273079 3041.734131
[planeAlignerRight]
284 -0.635147 -812.270569 -0.364304 0.000000 -89.960434 -90.005180 812.270874
285 -0.635147 -812.270569 -0.364304 0.000000 -89.960434 -90.005180 812.270874
286 -0.635147 -812.270569 -0.364304 0.000000 -89.960434 -90.005180 812.270874
[R_Toe1_01]
284 -188.383347 -224.864899 21.052242 91.317436 -8.672126 -173.954346 294.101532
285 -188.383347 -224.864899 21.052242 91.317444 -8.672128 -173.954346 294.101532
286 -188.383347 -224.864899 21.052242 91.317444 -8.672128 -173.954346 294.101532
[R_Toe2_01]
284 200.637817 -220.002121 -148.787384 -102.336929 18.655390 -65.375710 332.857574
285 200.637817 -220.002121 -148.787384 -102.334702 18.665392 -65.365593 332.857574
286 200.637817 -220.002121 -148.787384 -102.332458 18.675400 -65.355461 332.857574
[R_Toe3_01]
284 188.606735 -220.092957 191.126343 -80.403946 -24.197037 -68.955360 347.192566
285 188.606735 -220.092957 191.126343 -80.403946 -24.197033 -68.955360 347.192566
286 188.606735 -220.092957 191.126343 -80.403946 -24.197037 -68.955360 347.192566
[planeLockWeightRight]
284 -0.000477 0.000000 0.000000 -0.011823 -0.004379 -0.000027 0.000477
285 -0.000477 0.000000 0.000000 -0.011823 -0.004379 -0.000027 0.000477
286 -0.000477 0.000000 0.000000 -0.011823 -0.004379 -0.000027 0.000477
[R_Toe1_02]
284 413.762085 0.000477 -0.000119 0.001394 -24.735422 0.001394 413.762085
285 413.762085 0.000477 -0.000119 0.001394 -24.735422 0.001394 413.762085
286 413.762085 0.000477 -0.000119 0.001394 -24.735420 0.001394 413.762085
[R_Toe1_03]
284 464.317810 0.000000 0.001088 0.006478 69.124245 0.006478 464.317810
285 464.317810 0.000000 0.001088 0.006478 69.124245 0.006478 464.317810
286 464.317810 0.000000 0.001088 0.006478 69.124268 0.006478 464.317810
[R_Toe2_02]
284 342.234741 -0.000954 0.000238 0.001197 -67.512474 0.001197 342.234741
285 342.234741 -0.000954 0.000238 0.001197 -67.512474 0.001197 342.234741
286 342.234741 -0.000954 0.000238 0.001197 -67.512474 0.001197 342.234741
[R_Toe2_03]
284 420.210846 0.000715 -0.000268 0.008532 74.187614 0.008532 420.210846
285 420.210846 0.000715 -0.000268 0.008532 74.187614 0.008532 420.210846
286 420.210846 0.000715 -0.000268 0.008532 74.187614 0.008532 420.210846
[R_Toe3_02]
284 329.270355 -0.000477 -0.000954 0.001183 -75.610016 0.001183 329.270355
285 329.270355 -0.000477 -0.000954 0.001183 -75.610016 0.001183 329.270355
286 329.270355 -0.000477 -0.000954 0.001183 -75.610016 0.001183 329.270355
[R_Toe3_03]
284 439.137939 0.000238 0.001431 -0.018688 86.111031 -0.015189 439.137939
285 439.137939 0.000238 0.001431 -0.018688 86.111076 -0.015189 439.137939
286 439.137939 0.000238 0.001431 -0.018688 86.111031 -0.015189 439.137939
[Rear_Leg02]
284 1162.777710 -0.029802 0.005960 0.586728 -2.925552 -122.744186 1162.777710
285 1162.777710 -0.029802 0.005960 0.587011 -2.925650 -122.747131 1162.777710
286 1162.777710 -0.029802 0.005960 0.587293 -2.925748 -122.750099 1162.777710
[Rear_Leg03]
284 607.192505 -0.013351 -0.073195 0.006480 -0.002094 64.035629 607.192505
285 607.192505 -0.013351 -0.073195 0.006480 -0.002095 64.041458 607.192505
286 607.192505 -0.013351 -0.073195 0.006480 -0.002095 64.047295 607.192505
[Rear_Leg04]
284 995.874512 -0.020504 -0.011921 -0.040464 -0.015303 57.839230 995.874573
285 995.874512 -0.020504 -0.011921 -0.040464 -0.015302 57.842918 995.874573
286 995.874512 -0.020504 -0.011921 -0.040465 -0.015301 57.846600 995.874573
[Rear_Foot]
284 3096.176270 -0.067472 -0.041425 -143.515244 85.763023 49.105488 3096.176270
285 3096.176270 -0.067472 -0.041425 -143.511139 85.763588 49.108715 3096.176270
286 3096.176270 -0.067472 -0.041425 -143.507080 85.764183 49.111942 3096.176270
[planeAlignerCenter]
284 0.350077 0.966311 -838.790894 0.000009 0.000003 -179.999985 838.791565
285 0.350077 0.966311 -838.790894 0.000009 0.000003 -179.999985 838.791565
286 0.350077 0.966311 -838.790894 0.000009 0.000003 -179.999985 838.791565
[Rear_Toe1_01]
284 0.653352 83.966492 -371.173737 0.289255 41.915272 90.413170 380.553192
285 0.653352 83.966492 -371.173737 0.289400 41.915424 90.413177 380.553192
286 0.653352 83.966492 -371.173737 0.289541 41.915565 90.413177 380.553192
[Rear_Toe2_01]
284 178.200760 -294.826019 -362.060547 -7.196267 34.406261 -66.271294 499.765686
285 178.200760 -294.826019 -362.060547 -7.196269 34.406261 -66.271301 499.765686
286 178.200760 -294.826019 -362.060547 -7.196268 34.406265 -66.271301 499.765686
[Rear_Toe3_01]
284 -153.359680 -308.780914 -362.060852 3.289418 33.518005 -112.540970 499.952881
285 -153.359680 -308.780914 -362.060852 3.289418 33.518005 -112.540970 499.952881
286 -153.359680 -308.780914 -362.060852 3.289418 33.518005 -112.540970 499.952881
[planeLockWeightCenter]
284 -0.000062 0.000238 0.000000 -0.011814 -0.004373 -0.000015 0.000246
285 -0.000062 0.000238 0.000000 -0.011814 -0.004373 -0.000015 0.000246
286 -0.000062 0.000238 0.000000 -0.011814 -0.004373 -0.000015 0.000246
[Rear_Toe1_02]
284 379.707825 0.194073 0.000477 -0.000245 -31.724733 0.006936 379.707855
285 379.707825 0.194073 0.000477 -0.000245 -31.722069 0.006936 379.707855
286 379.707825 0.194073 0.000477 -0.000245 -31.719398 0.006936 379.707855
[Rear_Toe1_03]
284 500.129700 0.165701 0.000119 -0.000103 51.902466 0.007295 500.129761
285 500.129700 0.165701 0.000119 -0.000103 51.902466 0.007295 500.129761
286 500.129700 0.165701 0.000119 -0.000103 51.902485 0.007295 500.129761
[Rear_Toe2_02]
284 340.494507 0.000238 -0.000954 0.001192 -69.854523 0.001192 340.494507
285 340.494507 0.000238 -0.000954 0.001192 -69.854523 0.001192 340.494507
286 340.494507 0.000238 -0.000954 0.001192 -69.854523 0.001192 340.494507
[Rear_Toe2_03]
284 433.103577 0.000000 0.000238 0.006696 69.810341 0.006696 433.103546
285 433.103577 0.000000 0.000238 0.006696 69.810303 0.006696 433.103546
286 433.103577 0.000000 0.000238 0.006696 69.810326 0.006696 433.103546
[Rear_Toe3_02]
284 340.494141 -0.000358 -0.000477 0.008288 -67.274704 -0.009460 340.494171
285 340.494141 -0.000358 -0.000477 0.008288 -67.274704 -0.009460 340.494171
286 340.494141 -0.000358 -0.000477 0.008288 -67.274704 -0.009460 340.494171
[Rear_Toe3_03]
284 433.103577 0.001431 -0.000238 -0.000972 65.958984 -0.004547 433.103546
285 433.103577 0.001431 -0.000238 -0.000972 65.958961 -0.004547 433.103546
286 433.103577 0.001431 -0.000238 -0.000972 65.958984 -0.004547 433.103546
[Back_Bone]
284 1312.175781 -701.934692 0.000954 1.474768 -0.032758 -82.862007 1488.125488
285 1312.175781 -701.934692 0.000954 1.474784 -0.031052 -82.861977 1488.125488
286 1312.175781 -701.934692 0.000954 1.474801 -0.029346 -82.861961 1488.125488
[Head]
284 1406.159424 809.709290 0.001431 -0.001771 -1.474982 7.187481 1622.625488
285 1406.159424 809.709290 0.001431 -0.001782 -1.474982 7.188343 1622.625488
286 1406.159424 809.709290 0.001431 -0.001793 -1.474981 7.189205 1622.625488
[Motor_Bone]
284 1158.364380 -417.834747 0.000477 -0.095385 0.076104 -105.915703 1231.419434
285 1158.364380 -417.834747 0.000477 -0.095385 0.076104 -105.915703 1231.419434
286 1158.364380 -417.834747 0.000477 -0.095385 0.076104 -105.915703 1231.419434
[Ping_Mechanism]
284 1240.467163 -445.919250 0.756317 0.000103 -0.000053 82.120995 1318.181885
285 1240.467407 -445.919281 0.757129 0.000103 -0.000053 82.120995 1318.182129
286 1240.467529 -445.919312 0.757940 0.000103 -0.000053 82.120995 1318.182251
[BN_LookIK]
284 193.241119 1380.371704 -0.002861 0.000000 89.965736 -31.038179 1393.832153
285 193.241119 1380.371704 -0.002861 0.000000 89.965736 -31.038179 1393.832153
286 193.241119 1380.371704 -0.002861 0.000000 89.965736 -31.038179 1393.832153
[bottomMouth]
284 -435.092926 615.759399 -0.000954 -0.000022 0.000016 73.527184 753.966492
285 -435.092926 615.759399 -0.000954 -0.000022 0.000016 73.527184 753.966492
286 -435.092926 615.759399 -0.000954 -0.000022 0.000016 73.527184 753.966492
[L_Mouth01]
284 554.440979 7.658243 838.222046 150.204178 23.759130 109.605339 1005.027161
285 554.440979 7.658243 838.222046 150.204178 23.759130 109.605339 1005.027161
286 554.440979 7.658243 838.222046 150.204178 23.759130 109.605339 1005.027161
[L_mouthFront]
284 551.629089 934.514771 339.150421 0.000081 2.804060 79.119301 1136.941284
285 551.629089 934.514771 339.150421 0.000081 2.804060 79.119301 1136.941284
286 551.629089 934.514771 339.150421 0.000081 2.804060 79.119301 1136.941284
[mouthGun]
284 55.332661 1627.420898 0.000000 0.000023 0.000009 -11.038128 1628.361328
285 55.332661 1627.420898 0.000000 0.000023 0.000009 -11.038128 1628.361328
286 55.332661 1627.420898 0.000000 0.000023 0.000009 -11.038128 1628.361328
[R_Mouth01]
284 554.442383 7.659197 -838.223938 29.795891 -23.759109 109.605331 1005.029541
285 554.442383 7.659197 -838.223938 29.795891 -23.759109 109.605331 1005.029541
286 554.442383 7.659197 -838.223938 29.795891 -23.759109 109.605331 1005.029541
[R_mouthFront]
284 551.629089 934.514282 -339.151367 0.000029 -2.803930 79.119133 1136.941162
285 551.629089 934.514282 -339.151367 0.000029 -2.803930 79.119133 1136.941162
286 551.629089 934.514282 -339.151367 0.000029 -2.803930 79.119133 1136.941162
[TopMouth]
284 461.269867 -56.106091 -0.008583 -0.000059 -0.000268 92.025169 464.669525
285 461.269867 -56.106091 -0.008583 -0.000059 -0.000268 92.025169 464.669525
286 461.269867 -56.106091 -0.008583 -0.000059 -0.000268 92.025169 464.669525
[weapon_bone]
284 -987.239868 1448.372803 0.001431 0.000000 89.965736 -31.038221 1752.833740
285 -987.239868 1448.372803 0.001431 0.000000 89.965736 -31.038221 1752.833740
286 -987.239868 1448.372803 0.001431 0.000000 89.965736 -31.038221 1752.833740
